<svg width="63" height="59" viewBox="0 0 63 59" fill="none" xmlns="http://www.w3.org/2000/svg">
<rect x="0.5" y="37.5" width="61" height="21" stroke="#33383E"/>
<mask id="path-2-inside-1_12_256" fill="white">
<path d="M1 38H9.57143V58H1V38Z"/>
</mask>
<path d="M1 38H9.57143V58H1V38Z" fill="white"/>
<path d="M8.57143 38V58H10.5714V38H8.57143Z" fill="#33383E" mask="url(#path-2-inside-1_12_256)"/>
<mask id="path-4-inside-2_12_256" fill="white">
<path d="M9.57147 38H18.1429V58H9.57147V38Z"/>
</mask>
<path d="M9.57147 38H18.1429V58H9.57147V38Z" fill="white"/>
<path d="M17.1429 38V58H19.1429V38H17.1429Z" fill="#33383E" mask="url(#path-4-inside-2_12_256)"/>
<mask id="path-6-inside-3_12_256" fill="white">
<path d="M18.1429 38H26.7143V58H18.1429V38Z"/>
</mask>
<path d="M18.1429 38H26.7143V58H18.1429V38Z" fill="white"/>
<path d="M25.7143 38V58H27.7143V38H25.7143Z" fill="#33383E" mask="url(#path-6-inside-3_12_256)"/>
<mask id="path-8-inside-4_12_256" fill="white">
<path d="M26.7143 38H35.2857V58H26.7143V38Z"/>
</mask>
<path d="M26.7143 38H35.2857V58H26.7143V38Z" fill="white"/>
<path d="M34.2857 38V58H36.2857V38H34.2857Z" fill="#33383E" mask="url(#path-8-inside-4_12_256)"/>
<mask id="path-10-inside-5_12_256" fill="white">
<path d="M35.2857 38H43.8571V58H35.2857V38Z"/>
</mask>
<path d="M35.2857 38H43.8571V58H35.2857V38Z" fill="white"/>
<path d="M42.8571 38V58H44.8571V38H42.8571Z" fill="#33383E" mask="url(#path-10-inside-5_12_256)"/>
<rect x="52.4285" y="38" width="8.57143" height="20" fill="white"/>
<rect x="7" y="38" width="5.14286" height="13.3333" fill="#33383E"/>
<rect x="15.5715" y="38" width="5.14286" height="13.3333" fill="#33383E"/>
<rect x="32.7143" y="38" width="5.14286" height="13.3333" fill="#33383E"/>
<mask id="path-16-inside-6_12_256" fill="white">
<path d="M43.8571 38H52.4285V58H43.8571V38Z"/>
</mask>
<path d="M43.8571 38H52.4285V58H43.8571V38Z" fill="white"/>
<path d="M51.4285 38V58H53.4285V38H51.4285Z" fill="#33383E" mask="url(#path-16-inside-6_12_256)"/>
<rect x="41.2857" y="38" width="5.14286" height="13.3333" fill="#33383E"/>
<rect x="49.8571" y="38" width="5.14286" height="13.3333" fill="#33383E"/>
<path d="M23.886 26.14V27.19C23.4567 26.9287 22.8687 26.798 22.122 26.798C21.7487 26.798 21.45 26.8867 21.226 27.064C21.0113 27.232 20.904 27.4513 20.904 27.722C20.904 27.89 20.9367 28.0393 21.002 28.17C21.0673 28.2913 21.1933 28.4127 21.38 28.534C21.576 28.6553 21.716 28.7393 21.8 28.786C21.8933 28.8233 22.0893 28.9073 22.388 29.038C22.9853 29.2807 23.452 29.556 23.788 29.864C24.124 30.172 24.292 30.5873 24.292 31.11C24.292 31.7167 24.0773 32.1973 23.648 32.552C23.228 32.9067 22.6493 33.084 21.912 33.084C21.0533 33.084 20.358 32.9393 19.826 32.65V31.572C20.4513 31.9453 21.1233 32.132 21.842 32.132C22.2713 32.132 22.598 32.048 22.822 31.88C23.046 31.712 23.158 31.4833 23.158 31.194C23.158 30.858 23.032 30.5967 22.78 30.41C22.5373 30.2233 22.1267 30.0133 21.548 29.78C21.016 29.5747 20.5867 29.318 20.26 29.01C19.9427 28.702 19.784 28.2867 19.784 27.764C19.784 27.176 20.0033 26.7093 20.442 26.364C20.89 26.0093 21.4453 25.832 22.108 25.832C22.8453 25.832 23.438 25.9347 23.886 26.14ZM30.3135 28.996V28.716C30.3135 28.128 30.1549 27.6613 29.8375 27.316C29.5202 26.9613 29.0815 26.784 28.5215 26.784C27.9895 26.784 27.5369 26.9753 27.1635 27.358C26.7902 27.7407 26.5709 28.2867 26.5055 28.996H30.3135ZM30.9715 31.6V32.636C30.4209 32.9253 29.7489 33.07 28.9555 33.07C27.8822 33.07 27.0142 32.7433 26.3515 32.09C25.6982 31.4273 25.3715 30.5547 25.3715 29.472C25.3715 28.3427 25.6655 27.4513 26.2535 26.798C26.8415 26.1447 27.5975 25.818 28.5215 25.818C29.4082 25.818 30.1129 26.1027 30.6355 26.672C31.1582 27.2413 31.4195 28.0487 31.4195 29.094C31.4195 29.3927 31.3962 29.668 31.3495 29.92H26.5055C26.5895 30.62 26.8555 31.1567 27.3035 31.53C27.7515 31.9033 28.3395 32.09 29.0675 32.09C29.8609 32.09 30.4955 31.9267 30.9715 31.6ZM34.198 25.902V27.148C34.5713 26.2707 35.2153 25.832 36.13 25.832C36.298 25.832 36.4287 25.8413 36.522 25.86V26.952C36.326 26.8867 36.1253 26.854 35.92 26.854C35.4253 26.854 35.0147 27.0827 34.688 27.54C34.3613 27.9973 34.198 28.5247 34.198 29.122V33H33.092L33.106 25.902H34.198ZM39.4784 33L37.0004 25.902H38.1484L39.1284 28.898L40.1644 32.132C40.2484 31.7307 40.5984 30.6527 41.2144 28.898L42.2224 25.902H43.3704L40.8364 33H39.4784ZM44.7968 33V25.902H45.9028V33H44.7968ZM44.8248 24.194C44.6941 24.054 44.6288 23.8813 44.6288 23.676C44.6288 23.4707 44.6941 23.298 44.8248 23.158C44.9648 23.018 45.1374 22.948 45.3428 22.948C45.5481 22.948 45.7208 23.018 45.8608 23.158C46.0008 23.298 46.0708 23.4707 46.0708 23.676C46.0708 23.8813 46.0008 24.054 45.8608 24.194C45.7208 24.3247 45.5481 24.39 45.3428 24.39C45.1374 24.39 44.9648 24.3247 44.8248 24.194ZM48.7363 29.486C48.7457 30.2513 48.979 30.8907 49.4363 31.404C49.8937 31.908 50.5423 32.16 51.3823 32.16C51.9237 32.16 52.4277 32.006 52.8943 31.698V32.748C52.4463 33.0187 51.8957 33.154 51.2423 33.154C50.1223 33.154 49.231 32.7993 48.5683 32.09C47.915 31.3713 47.5883 30.4987 47.5883 29.472C47.5883 28.464 47.915 27.596 48.5683 26.868C49.231 26.14 50.1317 25.776 51.2703 25.776C51.877 25.776 52.4183 25.9067 52.8943 26.168V27.218C52.465 26.9287 51.961 26.784 51.3823 26.784C50.5797 26.784 49.9357 27.0453 49.4503 27.568C48.9743 28.0813 48.7363 28.7207 48.7363 29.486ZM59.1202 28.996V28.716C59.1202 28.128 58.9615 27.6613 58.6442 27.316C58.3268 26.9613 57.8882 26.784 57.3282 26.784C56.7962 26.784 56.3435 26.9753 55.9702 27.358C55.5968 27.7407 55.3775 28.2867 55.3122 28.996H59.1202ZM59.7782 31.6V32.636C59.2275 32.9253 58.5555 33.07 57.7622 33.07C56.6888 33.07 55.8208 32.7433 55.1582 32.09C54.5048 31.4273 54.1782 30.5547 54.1782 29.472C54.1782 28.3427 54.4722 27.4513 55.0602 26.798C55.6482 26.1447 56.4042 25.818 57.3282 25.818C58.2148 25.818 58.9195 26.1027 59.4422 26.672C59.9648 27.2413 60.2262 28.0487 60.2262 29.094C60.2262 29.3927 60.2028 29.668 60.1562 29.92H55.3122C55.3962 30.62 55.6622 31.1567 56.1102 31.53C56.5582 31.9033 57.1462 32.09 57.8742 32.09C58.6675 32.09 59.3022 31.9267 59.7782 31.6Z" fill="white"/>
<path d="M4.38 14.2H5.4C7.02667 14.2 7.84 13.46 7.84 11.98C7.84 10.6467 7.08667 9.98 5.58 9.98H4.38V14.2ZM1.3 7.52H5.94C7.43333 7.52 8.64 7.94 9.56 8.78C10.4933 9.62 10.96 10.6867 10.96 11.98C10.96 13.46 10.4733 14.6067 9.5 15.42C8.54 16.2333 7.35333 16.64 5.94 16.64H4.38V21H1.3V7.52ZM12.5695 21V10.86H15.4895V21H12.5695ZM12.8295 9.12C12.4962 8.78667 12.3295 8.38667 12.3295 7.92C12.3295 7.45333 12.4962 7.05333 12.8295 6.72C13.1629 6.38667 13.5629 6.22 14.0295 6.22C14.4962 6.22 14.8962 6.38667 15.2295 6.72C15.5629 7.05333 15.7295 7.45333 15.7295 7.92C15.7295 8.38667 15.5629 8.78667 15.2295 9.12C14.8962 9.45333 14.4962 9.62 14.0295 9.62C13.5629 9.62 13.1629 9.45333 12.8295 9.12ZM23.0169 16.84H22.0769C21.5835 16.84 21.2035 16.9467 20.9369 17.16C20.6702 17.3733 20.5369 17.6467 20.5369 17.98C20.5369 18.66 20.9302 19 21.7169 19C22.1302 19 22.4502 18.8733 22.6769 18.62C22.9035 18.3667 23.0169 18.02 23.0169 17.58V16.84ZM18.2769 13.98V11.36C19.0769 10.9067 20.2302 10.68 21.7369 10.68C23.1769 10.68 24.2502 10.9933 24.9569 11.62C25.6635 12.2333 26.0169 13.1933 26.0169 14.5V21H23.1569V19.76C22.7302 20.6267 21.8902 21.06 20.6369 21.06C19.6502 21.06 18.8769 20.78 18.3169 20.22C17.7702 19.66 17.4969 18.96 17.4969 18.12C17.4969 17.1467 17.8502 16.3933 18.5569 15.86C19.2769 15.3133 20.3369 15.04 21.7369 15.04H23.0169V14.34C23.0169 13.4867 22.4502 13.06 21.3169 13.06C20.2235 13.06 19.2102 13.3667 18.2769 13.98ZM31.2294 10.86V12.58C31.4827 12.02 31.8694 11.58 32.3894 11.26C32.9227 10.9267 33.556 10.76 34.2894 10.76C35.3294 10.76 36.1427 11.0733 36.7294 11.7C37.316 12.3133 37.6094 13.22 37.6094 14.42V21H34.6894V14.96C34.6894 14.36 34.5494 13.9067 34.2694 13.6C33.9894 13.28 33.596 13.12 33.0894 13.12C32.556 13.12 32.1094 13.3333 31.7494 13.76C31.4027 14.1733 31.2294 14.8 31.2294 15.64V21H28.3094V10.86H31.2294ZM44.3909 21.16C42.8043 21.16 41.5776 20.6867 40.7109 19.74C39.8443 18.78 39.4109 17.5533 39.4109 16.06C39.4109 14.5 39.8643 13.22 40.7709 12.22C41.6776 11.2067 42.8843 10.7 44.3909 10.7C45.9643 10.7 47.1843 11.1867 48.0509 12.16C48.9176 13.1333 49.3509 14.3733 49.3509 15.88C49.3509 17.4133 48.9109 18.68 48.0309 19.68C47.1643 20.6667 45.9509 21.16 44.3909 21.16ZM44.3709 13C43.7309 13 43.2509 13.2733 42.9309 13.82C42.6109 14.3667 42.4509 15.0733 42.4509 15.94C42.4509 16.8067 42.6109 17.52 42.9309 18.08C43.2643 18.6267 43.7576 18.9 44.4109 18.9C45.0509 18.9 45.5243 18.6333 45.8309 18.1C46.1509 17.5533 46.3109 16.8467 46.3109 15.98C46.3109 13.9933 45.6643 13 44.3709 13Z" fill="white"/>
</svg>
